PathFileType	4	(X/Y/Z)	C:/Users/beibeiliu/ov580/test_trc/User2\sequence.11_training_dense_left.trc
DataRate	CameraRate	NumFrames	NumMarkers	Units	OrigDataRate	OrigDataStartFrame	OrigNumFrames
120	120	8	19	mm	120	92	366
Frame#	Time	ThumbCMC			ThumbMCP			ThumbIP			ThumbTip			IndexMCP			IndexPIP			IndexTip			MiddleMCP			MiddlePIP			MiddleTip			RingMCP			RingPIP			RingTip			PinkyMCP			PinkyPIP			PinkyTip			BackHand1			BackHand2			BackHand3	
		X0	Y0	Z0	X1	Y1	Z1	X2	Y2	Z2	X3	Y3	Z3	X4	Y4	Z4	X5	Y5	Z5	X6	Y6	Z6	X7	Y7	Z7	X8	Y8	Z8	X9	Y9	Z9	X10	Y10	Z10	X11	Y11	Z11	X12	Y12	Z12	X13	Y13	Z13	X14	Y14	Z14	X15	Y15	Z15	X16	Y16	Z16	X17	Y17	Z17	X18	Y18	Z18	
91	0.758333	-223.357	18.8059	106.304	-197.62	28.4699	81.1522	-175.5	31.085	53.8297	-159.463	20.1697	35.6335	-249.868	-23.2583	35.1138	-245.675	-27.228	8.31868	-232.492	-27.5444	-19.0745	-247.476	-52.1642	43.6305	-241.758	-64.6268	5.49278	-222.402	-71.1984	-21.0777	-234.631	-74.8792	51.4178	-228.411	-87.1537	27.6515	-213.279	-90.7616	-0.892135	-208.443	-82.7787	73.4014	-197.954	-98.4783	48.5343	-187.622	-108.606	25.2524	-235.025	-55.1878	105.261	-238.045	-49.8224	135.229	-249.547	-21.708	108.658	
92	0.766667	-217.556	22.3644	112.427	-194.301	26.6396	87.1366	-175.285	29.9167	53.504	-162.806	16.6819	34.4582	-255.38	-12.5785	45.734	-257.141	-13.5657	12.8598	-246.588	-16.4742	-11.7663	-257.971	-44.4079	47.8828	-256.631	-53.2032	12.4142	-241.618	-56.9517	-20.4352	-247.115	-65.5023	56.3228	-246.318	-75.4229	26.5911	-236.913	-76.3944	-0.553081	-223.287	-80.4998	72.4152	-218.29	-92.1817	46.7124	-210.23	-99.9393	19.8536	-239.667	-51.1298	109.989	-240.173	-41.2674	142.854	-248.424	-15.1613	118.904	
93	0.775	-210.904	26.3749	117.222	-190.032	30.3155	86.0463	-173.983	31.4019	58.6095	-163.088	25.1346	33.0537	-260.896	9.75427	54.3718	-265.722	10.3993	22.8613	-258.095	8.3043	-8.91971	-269.834	-21.2287	48.9185	-272.696	-27.6699	17.5949	-260.034	-36.6457	-14.7841	-262.198	-47.8422	56.5669	-264.705	-53.1165	30.6495	-256.413	-52.8946	-2.59555	-241.702	-64.5752	70.4994	-240.659	-76.2574	42.8383	-233.259	-83.0315	15.6947	-249.303	-35.0409	112.163	-242.727	-30.4163	142.983	-249.577	-0.531428	123.458	
94	0.783333	-203.598	29.9727	122.433	-180.929	36.7686	90.6878	-169.171	36.9279	55.9777	-164.511	27.4656	34.5859	-259.698	34.1329	58.775	-266.922	34.7975	30.8128	-262.359	35.362	2.14306	-276.087	7.68176	56.9251	-283.145	5.64203	22.7748	-276.204	-5.36713	-10.984	-273.494	-20.78	62.1674	-279.779	-22.1062	35.2436	-275.076	-27.0194	0.433639	-257.763	-43.6147	71.3999	-261.513	-55.1995	46.322	-259.473	-56.8455	15.6263	-251.785	-18.3347	116.338	-246.517	-19.5292	147.474	-245.058	12.1717	128.73	
95	0.791667	-194.638	34.8563	124.282	-174.013	37.6235	94.3066	-167.77	38.6672	58.2945	-160.952	33.6162	33.5471	-254.989	57.6896	67.282	-262.606	63.7164	38.8349	-260.815	63.691	7.39274	-278.03	32.9359	67.3703	-287.51	38.6593	37.9238	-286.266	30.483	0.170041	-280.51	6.30631	68.7936	-289.063	8.36594	44.0152	-287.935	8.26165	11.895	-270.017	-22.1486	77.8476	-278.79	-23.4319	43.5109	-276.311	-20.5642	18.1957	-258.761	-1.43266	119.233	-244.385	-5.49963	150.186	-237.847	32.0759	134.112	
96	0.8	-186.318	38.391	123.975	-171.642	38.8707	91.9932	-159.745	43.367	55.6867	-163.427	37.8344	31.4735	-241.888	78.0139	78.3598	-247.438	94.1574	50.6458	-250.451	95.403	18.6286	-269.6	58.0559	78.0984	-284.753	68.6252	45.6443	-286.735	67.9611	13.2079	-278.705	38.6922	76.8195	-290.73	44.8524	49.8088	-291.832	45.5167	19.4223	-277.745	7.99756	78.2544	-286.505	9.3589	49.3922	-288.689	8.61334	23.9949	-257.472	16.5933	123.446	-247.86	7.44642	152.485	-226.126	41.5552	139.66	
97	0.808333	-181.618	39.0603	124.666	-166.313	39.5671	92.3407	-159.487	42.5455	59.7329	-163.187	43.5436	28.6489	-228.356	92.3735	87.6054	-233.257	113.052	57.8389	-234.77	118.239	27.428	-262.701	78.2657	84.2731	-274.24	96.3583	52.719	-277.345	99.4885	20.2933	-274.452	60.5841	82.9599	-288.335	69.0952	57.7424	-290.41	74.9771	26.8102	-279.211	29.2904	82.0656	-289.692	35.567	53.6786	-295.606	37.5959	28.1574	-252.988	34.9497	127.352	-243.107	15.2529	155.5	-223.01	49.6045	139.76	
98	0.816667	-174.354	42.3464	124.724	-159.261	40.45	91.4339	-155.554	46.064	54.6841	-163.316	45.018	30.505	-220.647	100.269	88.7652	-221.586	121.852	61.2624	-223.005	129.141	33.861	-252.914	93.3226	87.6944	-261.868	112.013	61.6308	-268.092	118.032	23.4604	-269.926	74.3264	85.6914	-282.07	85.308	62.9548	-283.162	94.1055	33.0774	-276.95	43.8879	83.7843	-288.082	51.5129	57.1105	-297.947	56.215	31.9903	-250.2	44.4093	127.794	-241.458	23.5965	155.901	-212.932	53.7806	143.481	
